<?xml version="1.0" encoding="UTF-8" standalone="no"?>
<!-- Created with Inkscape (http://www.inkscape.org/) -->
<svg
   xmlns:dc="http://purl.org/dc/elements/1.1/"
   xmlns:cc="http://creativecommons.org/ns#"
   xmlns:rdf="http://www.w3.org/1999/02/22-rdf-syntax-ns#"
   xmlns:svg="http://www.w3.org/2000/svg"
   xmlns="http://www.w3.org/2000/svg"
   xmlns:xlink="http://www.w3.org/1999/xlink"
   xmlns:sodipodi="http://sodipodi.sourceforge.net/DTD/sodipodi-0.dtd"
   xmlns:inkscape="http://www.inkscape.org/namespaces/inkscape"
   width="32px"
   height="32px"
   id="svg2887"
   sodipodi:version="0.32"
   inkscape:version="0.46"
   sodipodi:docname="collision_domain.svg"
   inkscape:output_extension="org.inkscape.output.svg.inkscape">
  <defs
     id="defs2889">
    <linearGradient
       inkscape:collect="always"
       xlink:href="#XMLID_16_"
       id="linearGradient4238"
       gradientUnits="userSpaceOnUse"
       gradientTransform="matrix(0.6024737,0,0,0.6890756,-188.17076,-522.43699)"
       x1="538.77338"
       y1="675.48541"
       x2="538.77338"
       y2="677.06049" />
    <radialGradient
       inkscape:collect="always"
       xlink:href="#XMLID_15_"
       id="radialGradient4236"
       gradientUnits="userSpaceOnUse"
       gradientTransform="matrix(0.6015648,0,0,0.7971009,-187.68106,-594.06594)"
       cx="538.77338"
       cy="651.10352"
       fx="538.77338"
       fy="651.10352"
       r="126.0234" />
    <linearGradient
       inkscape:collect="always"
       xlink:href="#XMLID_14_"
       id="linearGradient4234"
       gradientUnits="userSpaceOnUse"
       gradientTransform="matrix(0.6024737,0,0,0.6890756,-188.17074,-522.43699)"
       x1="538.77338"
       y1="677.87701"
       x2="538.77338"
       y2="789.12207" />
    <radialGradient
       inkscape:collect="always"
       xlink:href="#XMLID_13_"
       id="radialGradient4232"
       gradientUnits="userSpaceOnUse"
       gradientTransform="matrix(0.6024737,0,0,0.6890756,-188.17076,-522.43699)"
       cx="538.77252"
       cy="792.99609"
       r="121.5466" />
    <linearGradient
       inkscape:collect="always"
       xlink:href="#XMLID_12_"
       id="linearGradient4230"
       gradientUnits="userSpaceOnUse"
       gradientTransform="translate(-484,-674)"
       x1="497.81451"
       y1="732.4082"
       x2="497.81451"
       y2="736.62341" />
    <linearGradient
       inkscape:collect="always"
       xlink:href="#XMLID_11_"
       id="linearGradient4228"
       gradientUnits="userSpaceOnUse"
       gradientTransform="translate(-484,-674)"
       x1="579.72852"
       y1="732.41022"
       x2="579.72852"
       y2="736.55688" />
    <linearGradient
       inkscape:collect="always"
       xlink:href="#XMLID_10_"
       id="linearGradient4226"
       gradientUnits="userSpaceOnUse"
       gradientTransform="translate(-484,-674)"
       x1="538.77338"
       y1="674"
       x2="538.77338"
       y2="678.3681" />
    <linearGradient
       inkscape:collect="always"
       xlink:href="#XMLID_9_"
       id="linearGradient4224"
       gradientUnits="userSpaceOnUse"
       gradientTransform="matrix(0.6024737,0,0,0.6890756,-188.17076,-522.43699)"
       x1="538.77338"
       y1="793"
       x2="538.77338"
       y2="674" />
    <linearGradient
       inkscape:collect="always"
       xlink:href="#XMLID_16_"
       id="linearGradient4222"
       gradientUnits="userSpaceOnUse"
       gradientTransform="matrix(0.6024737,0,0,0.6890756,-188.17076,-522.43699)"
       x1="538.77338"
       y1="675.48541"
       x2="538.77338"
       y2="677.06049" />
    <radialGradient
       inkscape:collect="always"
       xlink:href="#XMLID_15_"
       id="radialGradient4220"
       gradientUnits="userSpaceOnUse"
       gradientTransform="matrix(0.6015648,0,0,0.7971009,-187.68106,-594.06594)"
       cx="538.77338"
       cy="651.10352"
       fx="538.77338"
       fy="651.10352"
       r="126.0234" />
    <linearGradient
       inkscape:collect="always"
       xlink:href="#XMLID_14_"
       id="linearGradient4218"
       gradientUnits="userSpaceOnUse"
       gradientTransform="matrix(0.6024737,0,0,0.6890756,-188.17074,-522.43699)"
       x1="538.77338"
       y1="677.87701"
       x2="538.77338"
       y2="789.12207" />
    <radialGradient
       inkscape:collect="always"
       xlink:href="#XMLID_13_"
       id="radialGradient4216"
       gradientUnits="userSpaceOnUse"
       gradientTransform="matrix(0.6024737,0,0,0.6890756,-188.17076,-522.43699)"
       cx="538.77252"
       cy="792.99609"
       r="121.5466" />
    <linearGradient
       inkscape:collect="always"
       xlink:href="#XMLID_12_"
       id="linearGradient4214"
       gradientUnits="userSpaceOnUse"
       gradientTransform="translate(-484,-674)"
       x1="497.81451"
       y1="732.4082"
       x2="497.81451"
       y2="736.62341" />
    <linearGradient
       inkscape:collect="always"
       xlink:href="#XMLID_11_"
       id="linearGradient4212"
       gradientUnits="userSpaceOnUse"
       gradientTransform="translate(-484,-674)"
       x1="579.72852"
       y1="732.41022"
       x2="579.72852"
       y2="736.55688" />
    <linearGradient
       inkscape:collect="always"
       xlink:href="#XMLID_10_"
       id="linearGradient4210"
       gradientUnits="userSpaceOnUse"
       gradientTransform="translate(-484,-674)"
       x1="538.77338"
       y1="674"
       x2="538.77338"
       y2="678.3681" />
    <linearGradient
       inkscape:collect="always"
       xlink:href="#XMLID_9_"
       id="linearGradient4208"
       gradientUnits="userSpaceOnUse"
       gradientTransform="matrix(0.6024737,0,0,0.6890756,-188.17076,-522.43699)"
       x1="538.77338"
       y1="793"
       x2="538.77338"
       y2="674" />
    <linearGradient
       inkscape:collect="always"
       xlink:href="#XMLID_16_"
       id="linearGradient4206"
       gradientUnits="userSpaceOnUse"
       gradientTransform="matrix(0.6024737,0,0,0.6890756,-188.17076,-522.43699)"
       x1="538.77338"
       y1="675.48541"
       x2="538.77338"
       y2="677.06049" />
    <radialGradient
       inkscape:collect="always"
       xlink:href="#XMLID_15_"
       id="radialGradient4204"
       gradientUnits="userSpaceOnUse"
       gradientTransform="matrix(0.6015648,0,0,0.7971009,-187.68106,-594.06594)"
       cx="538.77338"
       cy="651.10352"
       fx="538.77338"
       fy="651.10352"
       r="126.0234" />
    <linearGradient
       inkscape:collect="always"
       xlink:href="#XMLID_14_"
       id="linearGradient4202"
       gradientUnits="userSpaceOnUse"
       gradientTransform="matrix(0.6024737,0,0,0.6890756,-188.17074,-522.43699)"
       x1="538.77338"
       y1="677.87701"
       x2="538.77338"
       y2="789.12207" />
    <radialGradient
       inkscape:collect="always"
       xlink:href="#XMLID_13_"
       id="radialGradient4200"
       gradientUnits="userSpaceOnUse"
       gradientTransform="matrix(0.6024737,0,0,0.6890756,-188.17076,-522.43699)"
       cx="538.77252"
       cy="792.99609"
       r="121.5466" />
    <linearGradient
       inkscape:collect="always"
       xlink:href="#XMLID_12_"
       id="linearGradient4198"
       gradientUnits="userSpaceOnUse"
       gradientTransform="translate(-484,-674)"
       x1="497.81451"
       y1="732.4082"
       x2="497.81451"
       y2="736.62341" />
    <linearGradient
       inkscape:collect="always"
       xlink:href="#XMLID_11_"
       id="linearGradient4196"
       gradientUnits="userSpaceOnUse"
       gradientTransform="translate(-484,-674)"
       x1="579.72852"
       y1="732.41022"
       x2="579.72852"
       y2="736.55688" />
    <linearGradient
       inkscape:collect="always"
       xlink:href="#XMLID_10_"
       id="linearGradient4194"
       gradientUnits="userSpaceOnUse"
       gradientTransform="translate(-484,-674)"
       x1="538.77338"
       y1="674"
       x2="538.77338"
       y2="678.3681" />
    <linearGradient
       inkscape:collect="always"
       xlink:href="#XMLID_9_"
       id="linearGradient4192"
       gradientUnits="userSpaceOnUse"
       gradientTransform="matrix(0.6024737,0,0,0.6890756,-188.17076,-522.43699)"
       x1="538.77338"
       y1="793"
       x2="538.77338"
       y2="674" />
    <linearGradient
       id="XMLID_16_"
       gradientUnits="userSpaceOnUse"
       x1="538.77338"
       y1="675.48541"
       x2="538.77338"
       y2="677.06049"
       gradientTransform="translate(-484,-674)">
      <stop
         offset="0"
         style="stop-color:#FFFFFF"
         id="stop146" />
      <stop
         offset="1"
         style="stop-color:#00BF00"
         id="stop148" />
    </linearGradient>
    <linearGradient
       inkscape:collect="always"
       xlink:href="#XMLID_16_"
       id="linearGradient4190"
       gradientUnits="userSpaceOnUse"
       gradientTransform="matrix(0.6024737,0,0,0.6890756,-188.17076,-522.43699)"
       x1="538.77338"
       y1="675.48541"
       x2="538.77338"
       y2="677.06049" />
    <radialGradient
       id="XMLID_15_"
       cx="538.77338"
       cy="651.10352"
       r="126.0234"
       gradientTransform="translate(-484,-674)"
       gradientUnits="userSpaceOnUse">
      <stop
         offset="0"
         style="stop-color:#CCEAAC"
         id="stop137" />
      <stop
         offset="0.5393"
         style="stop-color:#3BA42A"
         id="stop139" />
      <stop
         offset="1"
         style="stop-color:#91E851"
         id="stop141" />
    </radialGradient>
    <radialGradient
       inkscape:collect="always"
       xlink:href="#XMLID_15_"
       id="radialGradient4188"
       gradientUnits="userSpaceOnUse"
       gradientTransform="matrix(0.6015648,0,0,0.7971009,-187.68106,-594.06594)"
       cx="538.77338"
       cy="651.10352"
       fx="538.77338"
       fy="651.10352"
       r="126.0234" />
    <linearGradient
       id="XMLID_14_"
       gradientUnits="userSpaceOnUse"
       x1="538.77338"
       y1="677.87701"
       x2="538.77338"
       y2="789.12207"
       gradientTransform="translate(-484,-674)">
      <stop
         offset="0.0056"
         style="stop-color:#1E7D27"
         id="stop122" />
      <stop
         offset="0.1348"
         style="stop-color:#3BA42A"
         id="stop124" />
      <stop
         offset="0.4831"
         style="stop-color:#B8E57F"
         id="stop126" />
      <stop
         offset="0.6299"
         style="stop-color:#A9E66E"
         id="stop128" />
      <stop
         offset="0.8528"
         style="stop-color:#97E859"
         id="stop130" />
      <stop
         offset="1"
         style="stop-color:#91E851"
         id="stop132" />
    </linearGradient>
    <linearGradient
       inkscape:collect="always"
       xlink:href="#XMLID_14_"
       id="linearGradient4186"
       gradientUnits="userSpaceOnUse"
       gradientTransform="matrix(0.6024737,0,0,0.6890756,-188.17074,-522.43699)"
       x1="538.77338"
       y1="677.87701"
       x2="538.77338"
       y2="789.12207" />
    <radialGradient
       id="XMLID_13_"
       cx="538.77252"
       cy="792.99609"
       r="121.5466"
       gradientTransform="translate(-484,-674)"
       gradientUnits="userSpaceOnUse">
      <stop
         offset="0"
         style="stop-color:#FFFAB3"
         id="stop9505" />
      <stop
         offset="0.0494"
         style="stop-color:#DFEE9F"
         id="stop9507" />
      <stop
         offset="0.1049"
         style="stop-color:#C3E48D"
         id="stop9509" />
      <stop
         offset="0.1605"
         style="stop-color:#AEDC80"
         id="stop9511" />
      <stop
         offset="0.2156"
         style="stop-color:#A2D879"
         id="stop9513" />
      <stop
         offset="0.2697"
         style="stop-color:#9ED676"
         id="stop9515" />
      <stop
         offset="0.3989"
         style="stop-color:#3BA42A"
         id="stop9517" />
      <stop
         offset="0.3995"
         style="stop-color:#3BA42A"
         id="stop9519" />
      <stop
         offset="0.4484"
         style="stop-color:#258426"
         id="stop9521" />
      <stop
         offset="0.4956"
         style="stop-color:#166D24"
         id="stop101" />
      <stop
         offset="0.54"
         style="stop-color:#0C5F23"
         id="stop103" />
      <stop
         offset="0.5787"
         style="stop-color:#095A22"
         id="stop105" />
      <stop
         offset="0.5948"
         style="stop-color:#166727"
         id="stop107" />
      <stop
         offset="0.6456"
         style="stop-color:#388B33"
         id="stop109" />
      <stop
         offset="0.6932"
         style="stop-color:#51A53C"
         id="stop111" />
      <stop
         offset="0.7359"
         style="stop-color:#61B542"
         id="stop113" />
      <stop
         offset="0.7697"
         style="stop-color:#66BA44"
         id="stop115" />
      <stop
         offset="1"
         style="stop-color:#095A22"
         id="stop117" />
    </radialGradient>
    <radialGradient
       inkscape:collect="always"
       xlink:href="#XMLID_13_"
       id="radialGradient4184"
       gradientUnits="userSpaceOnUse"
       gradientTransform="matrix(0.6024737,0,0,0.6890756,-188.17076,-522.43699)"
       cx="538.77252"
       cy="792.99609"
       r="121.5466" />
    <linearGradient
       id="XMLID_12_"
       gradientUnits="userSpaceOnUse"
       x1="96"
       y1="104"
       x2="88.000198"
       y2="96.000198">
      <stop
         offset="0"
         style="stop-color:#888A85"
         id="stop83" />
      <stop
         offset="0.0072"
         style="stop-color:#8C8E89"
         id="stop85" />
      <stop
         offset="0.0673"
         style="stop-color:#ABACA9"
         id="stop87" />
      <stop
         offset="0.1347"
         style="stop-color:#C5C6C4"
         id="stop89" />
      <stop
         offset="0.2652576"
         style="stop-color:#DBDBDA"
         id="stop91" />
      <stop
         offset="0.37646064"
         style="stop-color:#EBEBEB"
         id="stop93" />
      <stop
         offset="0.48740286"
         style="stop-color:#F7F7F6"
         id="stop95" />
      <stop
         offset="0.6324091"
         style="stop-color:#FDFDFD"
         id="stop97" />
      <stop
         offset="1"
         style="stop-color:#FFFFFF"
         id="stop99" />
    </linearGradient>
    <linearGradient
       inkscape:collect="always"
       xlink:href="#XMLID_12_"
       id="linearGradient4182"
       gradientUnits="userSpaceOnUse"
       gradientTransform="translate(-484,-674)"
       x1="497.81451"
       y1="732.4082"
       x2="497.81451"
       y2="736.62341" />
    <linearGradient
       id="XMLID_11_"
       gradientUnits="userSpaceOnUse"
       x1="579.72852"
       y1="732.41022"
       x2="579.72852"
       y2="736.55688"
       gradientTransform="translate(-484,-674)">
      <stop
         offset="0"
         style="stop-color:#094422"
         id="stop61" />
      <stop
         offset="1"
         style="stop-color:#9ED676"
         id="stop63" />
    </linearGradient>
    <linearGradient
       inkscape:collect="always"
       xlink:href="#XMLID_11_"
       id="linearGradient4180"
       gradientUnits="userSpaceOnUse"
       gradientTransform="translate(-484,-674)"
       x1="579.72852"
       y1="732.41022"
       x2="579.72852"
       y2="736.55688" />
    <linearGradient
       id="XMLID_10_"
       gradientUnits="userSpaceOnUse"
       x1="538.77338"
       y1="674"
       x2="538.77338"
       y2="678.3681"
       gradientTransform="translate(-484,-674)">
      <stop
         offset="0"
         style="stop-color:#094422"
         id="stop54" />
      <stop
         offset="1"
         style="stop-color:#9ED676"
         id="stop3449" />
    </linearGradient>
    <linearGradient
       inkscape:collect="always"
       xlink:href="#XMLID_10_"
       id="linearGradient4178"
       gradientUnits="userSpaceOnUse"
       gradientTransform="translate(-484,-674)"
       x1="538.77338"
       y1="674"
       x2="538.77338"
       y2="678.3681" />
    <linearGradient
       inkscape:collect="always"
       xlink:href="#XMLID_9_"
       id="linearGradient4176"
       gradientUnits="userSpaceOnUse"
       gradientTransform="matrix(0.6024737,0,0,0.6890756,-188.17076,-522.43699)"
       x1="538.77338"
       y1="793"
       x2="538.77338"
       y2="674" />
    <radialGradient
       gradientUnits="userSpaceOnUse"
       gradientTransform="matrix(0.6667,0,0,0.7574,20.7214,14.064)"
       r="40.0294"
       cy="59.1865"
       cx="53.1978"
       id="radialGradient3163">
      <stop
         id="stop3165"
         style="stop-color:#f40000;stop-opacity:0.94117647;"
         offset="0" />
      <stop
         id="stop3175"
         style="stop-color:#cb0006;stop-opacity:1;"
         offset="1" />
    </radialGradient>
    <radialGradient
       inkscape:collect="always"
       xlink:href="#radialGradient3163"
       id="radialGradient4174"
       gradientUnits="userSpaceOnUse"
       gradientTransform="matrix(1,0,0,0.9948454,0,0.3292526)"
       spreadMethod="pad"
       cx="63.75"
       cy="63.875"
       fx="63.75"
       fy="63.875"
       r="24.25" />
    <linearGradient
       id="XMLID_9_"
       gradientUnits="userSpaceOnUse"
       x1="11.9487"
       y1="34"
       x2="104.0518"
       y2="34"
       gradientTransform="translate(559.14286,-264.28571)">
      <stop
         offset="0"
         style="stop-color:#FFFFFF"
         id="stop56" />
      <stop
         offset="0.80000001"
         style="stop-color:#ffffff;stop-opacity:0;"
         id="stop58" />
    </linearGradient>
    <linearGradient
       inkscape:collect="always"
       xlink:href="#XMLID_9_"
       id="linearGradient4338"
       gradientUnits="userSpaceOnUse"
       gradientTransform="translate(6.0000006,6.0000006)"
       x1="11.9487"
       y1="34"
       x2="104.0518"
       y2="34" />
    <radialGradient
       id="XMLID_7_"
       cx="58"
       cy="58"
       r="48"
       gradientUnits="userSpaceOnUse"
       gradientTransform="translate(559.14286,-264.28571)">
      <stop
         offset="0"
         style="stop-color:#FFFFFF"
         id="stop26" />
      <stop
         offset="0.574"
         style="stop-color:#FFFFFF"
         id="stop28" />
      <stop
         offset="0.6842"
         style="stop-color:#FBFBFB"
         id="stop30" />
      <stop
         offset="0.8001"
         style="stop-color:#EEEEEE"
         id="stop32" />
      <stop
         offset="0.9"
         style="stop-color:#DDDDDD"
         id="stop34" />
      <stop
         offset="1"
         style="stop-color:#BBBBBB"
         id="stop36" />
    </radialGradient>
    <radialGradient
       inkscape:collect="always"
       xlink:href="#XMLID_7_"
       id="radialGradient4341"
       gradientUnits="userSpaceOnUse"
       gradientTransform="matrix(1.0833333,0,0,1.0833333,1.1666673,1.1666673)"
       cx="58"
       cy="58"
       r="48" />
    <filter
       id="AI_Sfocatura_4">
      <feGaussianBlur
         stdDeviation="4"
         id="feGaussianBlur6" />
    </filter>
    <linearGradient
       id="XMLID_6_"
       gradientUnits="userSpaceOnUse"
       x1="58.0005"
       y1="116"
       x2="58.0005"
       y2="4.882812e-04">
      <stop
         offset="0"
         style="stop-color:#555555"
         id="stop9" />
      <stop
         offset="1"
         style="stop-color:#888888"
         id="stop17" />
    </linearGradient>
    <linearGradient
       inkscape:collect="always"
       xlink:href="#XMLID_6_"
       id="linearGradient4168"
       gradientUnits="userSpaceOnUse"
       x1="58.0005"
       y1="116"
       x2="58.0005"
       y2="4.882812e-04" />
    <inkscape:perspective
       sodipodi:type="inkscape:persp3d"
       inkscape:vp_x="0 : 16 : 1"
       inkscape:vp_y="0 : 1000 : 0"
       inkscape:vp_z="32 : 16 : 1"
       inkscape:persp3d-origin="16 : 10.666667 : 1"
       id="perspective2895" />
  </defs>
  <sodipodi:namedview
     id="base"
     pagecolor="#ffffff"
     bordercolor="#666666"
     borderopacity="1.0"
     inkscape:pageopacity="0.0"
     inkscape:pageshadow="2"
     inkscape:zoom="11.197802"
     inkscape:cx="16"
     inkscape:cy="16"
     inkscape:current-layer="layer1"
     showgrid="true"
     inkscape:grid-bbox="true"
     inkscape:document-units="px"
     inkscape:window-width="1272"
     inkscape:window-height="949"
     inkscape:window-x="0"
     inkscape:window-y="46" />
  <metadata
     id="metadata2892">
    <rdf:RDF>
      <cc:Work
         rdf:about="">
        <dc:format>image/svg+xml</dc:format>
        <dc:type
           rdf:resource="http://purl.org/dc/dcmitype/StillImage" />
      </cc:Work>
    </rdf:RDF>
  </metadata>
  <g
     id="layer1"
     inkscape:label="Layer 1"
     inkscape:groupmode="layer">
    <g
       id="g4549"
       transform="scale(0.25,0.25)">
      <circle
         transform="matrix(1.1034483,0,0,1.1034483,0,-2.8e-6)"
         sodipodi:ry="58"
         sodipodi:rx="58"
         sodipodi:cy="58"
         sodipodi:cx="58"
         style="fill:url(#linearGradient4168)"
         id="circle19"
         r="58"
         cy="58"
         cx="58" />
      <g
         style="opacity:0.8;filter:url(#AI_Sfocatura_4)"
         transform="matrix(1.0833333,0,0,1.0833333,1.1666686,1.1666686)"
         id="g21">
        <path
           id="path23"
           d="M 10,58 C 10,84.467 31.533,106 58,106 C 84.467,106 106,84.467 106,58 C 106,31.533 84.467,10 58,10 C 31.533,10 10,31.533 10,58 z" />
      </g>
      <path
         style="fill:url(#radialGradient4341)"
         id="path38"
         d="M 12,63.999999 C 12,92.672581 35.327414,116 63.999998,116 C 92.672584,116 116,92.672581 116,63.999999 C 116,35.327415 92.672584,12 63.999998,12 C 35.327414,12 12,35.327415 12,63.999999 z" />
      <path
         style="opacity:0.5;fill:url(#linearGradient4338)"
         id="path60"
         d="M 63.999998,63.999999 C 81.788999,63.999999 97.967006,58.87 110.05199,50.491 C 104.19999,30.582 85.775999,16 63.999998,16 C 42.222999,16 23.798999,30.582999 17.949,50.491 C 30.032,58.87 46.209999,63.999999 63.999998,63.999999 z" />
      <path
         transform="matrix(0.6597937,0,0,0.6632124,21.938147,21.637309)"
         d="M 88,63.875 A 24.25,24.125 0 1 1 39.5,63.875 A 24.25,24.125 0 1 1 88,63.875 z"
         sodipodi:ry="24.125"
         sodipodi:rx="24.25"
         sodipodi:cy="63.875"
         sodipodi:cx="63.75"
         id="path2195"
         style="fill:url(#radialGradient4174);fill-opacity:1;fill-rule:evenodd;stroke:none;stroke-width:8;stroke-linecap:round;stroke-linejoin:round;stroke-miterlimit:4;stroke-dasharray:none;stroke-opacity:1"
         sodipodi:type="arc" />
      <g
         transform="matrix(0.4688609,0,0,0.4574253,0.3677458,103.01281)"
         id="g9589">
        <path
           style="fill:url(#linearGradient4176)"
           d="M 122.40803,-58 C 121.11995,-58 120.07225,-56.801009 120.07225,-55.327765 C 120.07225,-55.327765 120.07225,-20.243475 120.07225,-17.752469 C 118.07565,-17.752469 105.76289,-17.752469 105.76289,-17.752469 C 104.82364,-17.752469 103.98018,-17.113701 103.61327,-16.125567 C 103.61266,-16.122801 103.4265,-15.080231 103.4265,-15.080231 C 103.4265,-14.384954 103.65845,-13.726198 104.08019,-13.22662 L 134.74308,23.18138 C 135.18048,23.70094 135.7944,24 136.42579,24 C 137.05778,24 137.6705,23.70094 138.1085,23.18138 L 168.772,-13.22662 C 169.42327,-14.000449 169.60703,-15.136741 169.23953,-16.125567 C 168.87081,-17.115074 168.02735,-17.751777 167.08929,-17.751777 C 167.08929,-17.751777 154.77654,-17.751777 152.77994,-17.751777 C 152.77994,-20.243475 152.77994,-55.327076 152.77994,-55.327076 C 152.77933,-56.801009 151.73164,-58 150.44355,-58 L 122.40803,-58 z"
           id="path49" />
        <g
           id="g51"
           transform="matrix(0.6024737,0,0,0.6890756,103.4265,-58)">
          <linearGradient
             id="linearGradient9265"
             gradientUnits="userSpaceOnUse"
             x1="538.77338"
             y1="674"
             x2="538.77338"
             y2="678.3681"
             gradientTransform="translate(-484,-674)">
            <stop
               offset="0"
               style="stop-color:#094422"
               id="stop9267" />
            <stop
               offset="1"
               style="stop-color:#9ED676"
               id="stop9269" />
          </linearGradient>
          <path
             style="fill:url(#linearGradient4178)"
             d="M 31.506,0.486 L 78.04,0.486 C 80.18,0.486 81.918,2.225 81.918,4.363 C 81.918,4.051 81.918,3.878 81.918,3.878 C 81.917,1.74 80.178,0 78.04,0 L 31.506,0 C 29.368,0 27.629,1.74 27.629,3.878 C 27.629,3.878 27.629,4.051 27.629,4.363 C 27.629,2.225 29.368,0.486 31.506,0.486 z"
             id="path58" />
          <linearGradient
             id="linearGradient9272"
             gradientUnits="userSpaceOnUse"
             x1="579.72852"
             y1="732.41022"
             x2="579.72852"
             y2="736.55688"
             gradientTransform="translate(-484,-674)">
            <stop
               offset="0"
               style="stop-color:#094422"
               id="stop9274" />
            <stop
               offset="1"
               style="stop-color:#9ED676"
               id="stop9276" />
          </linearGradient>
          <path
             style="fill:url(#linearGradient4180)"
             d="M 81.917,58.894 C 85.23,58.894 105.668,58.894 105.668,58.894 C 107.227,58.894 108.625,59.82 109.236,61.255 C 109.415,61.675 109.506,62.111 109.531,62.551 C 109.572,61.954 109.48,61.344 109.236,60.77 C 108.625,59.335 107.224,58.411 105.668,58.411 C 105.668,58.411 85.23,58.411 81.917,58.411 C 81.917,58.616 81.917,58.779 81.917,58.894 z"
             id="path65" />
          <linearGradient
             id="linearGradient9279"
             gradientUnits="userSpaceOnUse"
             x1="497.81451"
             y1="732.4082"
             x2="497.81451"
             y2="736.62341"
             gradientTransform="translate(-484,-674)">
            <stop
               offset="0"
               style="stop-color:#094422"
               id="stop9281" />
            <stop
               offset="1"
               style="stop-color:#9ED676"
               id="stop9283" />
          </linearGradient>
          <path
             style="fill:url(#linearGradient4182)"
             d="M 0.309,61.256 C 0.918,59.821 2.319,58.894 3.877,58.894 C 3.877,58.894 24.314,58.894 27.628,58.894 C 27.628,58.779 27.628,58.616 27.628,58.408 C 24.314,58.408 3.877,58.408 3.877,58.408 C 2.318,58.408 0.918,59.335 0.309,60.769 C 0.309,60.773 0,62.286 0,62.286 C 0,62.398 0.022,62.507 0.032,62.616 C 0.109,62.239 0.309,61.258 0.309,61.256 z"
             id="path72" />
        </g>
        <path
           style="opacity:0.5;fill:#ffffff"
           enable-background="new    "
           d="M 152.77933,-15.331057 C 154.77534,-15.331057 167.08869,-15.331057 167.08869,-15.331057 C 168.02794,-15.331057 168.87021,-14.692971 169.23832,-13.704155 C 169.2594,-13.646273 169.27387,-13.585625 169.29193,-13.527062 C 169.48051,-14.144468 169.47147,-14.830788 169.23832,-15.457162 C 168.87021,-16.445977 168.02614,-17.084064 167.08869,-17.084064 C 167.08869,-17.084064 154.77534,-17.084064 152.77933,-17.084064 C 152.77933,-16.201364 152.77933,-15.589458 152.77933,-15.331057 z"
           id="path74" />
        <path
           style="opacity:0.5;fill:#ffffff"
           enable-background="new    "
           d="M 103.61266,-13.703464 C 103.97957,-14.693662 104.82364,-15.331057 105.76229,-15.331057 C 105.76229,-15.331057 118.07504,-15.331057 120.07164,-15.331057 C 120.07164,-15.589458 120.07164,-16.201364 120.07164,-17.084064 C 118.07504,-17.084064 105.76229,-17.084064 105.76229,-17.084064 C 104.82304,-17.084064 103.97957,-16.445296 103.61266,-15.45647 C 103.61266,-15.454406 103.4265,-14.411826 103.4265,-14.411826 C 103.4265,-14.091416 103.48072,-13.783399 103.57471,-13.490541 C 103.597,-13.613189 103.61266,-13.702772 103.61266,-13.703464 z"
           id="path76" />
        <path
           style="fill:#ffffff"
           d="M 167.08869,-17.084064 C 167.08869,-17.084064 155.12718,-17.084064 152.19494,-17.084064 C 151.87201,-17.084064 151.60994,-17.383123 151.60994,-17.752469 L 151.60994,-17.084064 C 151.60994,-16.887684 151.60994,-16.196534 151.60994,-15.999462 C 152.68415,-15.999462 167.08688,-15.999462 167.08688,-15.999462 C 167.6014,-15.999462 168.08217,-16.490774 168.51174,-16.214449 C 168.19122,-16.745037 167.67008,-17.084064 167.08869,-17.084064 z"
           id="path78" />
        <path
           style="fill:#ffffff"
           d="M 120.65604,-17.084064 C 117.72381,-17.084064 105.76229,-17.084064 105.76229,-17.084064 C 105.1809,-17.084064 104.66037,-16.745728 104.33744,-16.213768 C 104.7664,-16.489392 105.24778,-15.998771 105.76229,-15.998771 C 105.76229,-15.998771 120.16563,-15.998771 121.23984,-15.998771 C 121.23984,-16.195853 121.23984,-16.886992 121.23984,-17.083372 L 121.23984,-17.751777 C 121.24044,-17.383123 120.97897,-17.084064 120.65604,-17.084064 z"
           id="path80" />
        <path
           style="fill:url(#radialGradient4184)"
           d="M 122.40803,-56.663883 C 121.76339,-56.663883 121.24044,-56.065765 121.24044,-55.327765 C 121.24044,-55.327765 121.24044,-18.913558 121.24044,-16.415659 C 119.22035,-16.415659 105.76289,-16.415659 105.76289,-16.415659 C 105.29477,-16.415659 104.87123,-16.095238 104.68808,-15.602553 C 104.62542,-15.434417 104.5947,-15.256633 104.5947,-15.078859 C 104.5947,-14.741204 104.70796,-14.404251 104.92124,-14.151362 L 135.58414,22.25664 C 135.80464,22.51918 136.10829,22.66733 136.42519,22.66733 C 136.74209,22.66733 137.04634,22.51918 137.26624,22.25664 L 167.92975,-14.151362 C 168.25448,-14.538622 168.34485,-15.109177 168.16351,-15.601181 C 167.97915,-16.093865 167.55682,-16.414286 167.08869,-16.414286 C 167.08869,-16.414286 153.63063,-16.414286 151.61174,-16.414286 C 151.61174,-18.912186 151.61174,-55.327076 151.61174,-55.327076 C 151.61174,-56.065076 151.08819,-56.663193 150.44415,-56.663193 L 122.40803,-56.663883 L 122.40803,-56.663883 z"
           id="path119" />
        <path
           style="fill:url(#linearGradient4186)"
           d="M 149.66237,-15.080231 L 149.66237,-55.327765 L 123.18921,-55.327765 L 123.18921,-15.080231 L 105.76229,-15.080231 L 136.42579,21.32776 L 167.08869,-15.080231 L 149.66237,-15.080231 z"
           id="polygon134"
           sodipodi:nodetypes="cccccccc" />
        <path
           style="fill:url(#radialGradient4188)"
           d="M 126.33071,-52.106113 C 126.33071,-46.18585 126.33071,-13.208265 126.33071,-13.208265 C 126.33071,-11.263404 125.14137,-9.68748 123.67415,-9.68748 C 123.67415,-9.68748 119.09054,-9.68748 114.77933,-9.68748 C 120.46129,-1.871013 133.66077,16.28485 136.4264,20.08959 C 139.19202,16.28485 152.39204,-1.871013 158.07347,-9.68748 C 153.7617,-9.68748 149.17863,-9.68748 149.17863,-9.68748 C 147.71087,-9.68748 146.52153,-11.263404 146.52153,-13.208265 C 146.52153,-13.208265 146.52153,-46.18585 146.52153,-52.106113 C 142.75237,-52.106113 130.09878,-52.106113 126.33071,-52.106113 z"
           id="path143" />
        <path
           style="fill:url(#linearGradient4190)"
           d="M 122.40803,-56.976034 C 121.80556,-56.976034 121.29949,-56.604621 120.98379,-56.073345 C 121.41155,-56.354488 121.88027,-55.89074 122.40803,-55.89074 L 150.44355,-55.89074 C 150.97131,-55.89074 151.43944,-56.354488 151.8678,-56.073345 C 151.5521,-56.604621 151.04602,-56.976034 150.44355,-56.976034 L 122.40803,-56.976034 L 122.40803,-56.976034 z"
           id="path150" />
        <path
           style="fill:#ffffff"
           d="M 137.26745,21.62407 C 137.04754,21.86318 136.74269,21.99617 136.42579,21.99617 C 136.10889,21.99617 135.80464,21.86318 135.58414,21.62407 L 129.83112,15.424454 L 135.58414,22.25526 C 135.80464,22.51711 136.10829,22.66526 136.42519,22.66526 C 136.74209,22.66526 137.04634,22.51711 137.26624,22.25526 L 143.01806,15.425837 L 137.26745,21.62407 z"
           id="path152" />
      </g>
      <g
         transform="matrix(0.4688609,0,0,-0.4574253,3.4995312e-2,25.189487)"
         id="g3601">
        <path
           style="fill:url(#linearGradient4192)"
           d="M 122.40803,-58 C 121.11995,-58 120.07225,-56.801009 120.07225,-55.327765 C 120.07225,-55.327765 120.07225,-20.243475 120.07225,-17.752469 C 118.07565,-17.752469 105.76289,-17.752469 105.76289,-17.752469 C 104.82364,-17.752469 103.98018,-17.113701 103.61327,-16.125567 C 103.61266,-16.122801 103.4265,-15.080231 103.4265,-15.080231 C 103.4265,-14.384954 103.65845,-13.726198 104.08019,-13.22662 L 134.74308,23.18138 C 135.18048,23.70094 135.7944,24 136.42579,24 C 137.05778,24 137.6705,23.70094 138.1085,23.18138 L 168.772,-13.22662 C 169.42327,-14.000449 169.60703,-15.136741 169.23953,-16.125567 C 168.87081,-17.115074 168.02735,-17.751777 167.08929,-17.751777 C 167.08929,-17.751777 154.77654,-17.751777 152.77994,-17.751777 C 152.77994,-20.243475 152.77994,-55.327076 152.77994,-55.327076 C 152.77933,-56.801009 151.73164,-58 150.44355,-58 L 122.40803,-58 z"
           id="path3603" />
        <g
           id="g3605"
           transform="matrix(0.6024737,0,0,0.6890756,103.4265,-58)">
          <linearGradient
             id="linearGradient3607"
             gradientUnits="userSpaceOnUse"
             x1="538.77338"
             y1="674"
             x2="538.77338"
             y2="678.3681"
             gradientTransform="translate(-484,-674)">
            <stop
               offset="0"
               style="stop-color:#094422"
               id="stop3609" />
            <stop
               offset="1"
               style="stop-color:#9ED676"
               id="stop3611" />
          </linearGradient>
          <path
             style="fill:url(#linearGradient4194)"
             d="M 31.506,0.486 L 78.04,0.486 C 80.18,0.486 81.918,2.225 81.918,4.363 C 81.918,4.051 81.918,3.878 81.918,3.878 C 81.917,1.74 80.178,0 78.04,0 L 31.506,0 C 29.368,0 27.629,1.74 27.629,3.878 C 27.629,3.878 27.629,4.051 27.629,4.363 C 27.629,2.225 29.368,0.486 31.506,0.486 z"
             id="path3613" />
          <linearGradient
             id="linearGradient3615"
             gradientUnits="userSpaceOnUse"
             x1="579.72852"
             y1="732.41022"
             x2="579.72852"
             y2="736.55688"
             gradientTransform="translate(-484,-674)">
            <stop
               offset="0"
               style="stop-color:#094422"
               id="stop3617" />
            <stop
               offset="1"
               style="stop-color:#9ED676"
               id="stop3619" />
          </linearGradient>
          <path
             style="fill:url(#linearGradient4196)"
             d="M 81.917,58.894 C 85.23,58.894 105.668,58.894 105.668,58.894 C 107.227,58.894 108.625,59.82 109.236,61.255 C 109.415,61.675 109.506,62.111 109.531,62.551 C 109.572,61.954 109.48,61.344 109.236,60.77 C 108.625,59.335 107.224,58.411 105.668,58.411 C 105.668,58.411 85.23,58.411 81.917,58.411 C 81.917,58.616 81.917,58.779 81.917,58.894 z"
             id="path3621" />
          <linearGradient
             id="linearGradient3623"
             gradientUnits="userSpaceOnUse"
             x1="497.81451"
             y1="732.4082"
             x2="497.81451"
             y2="736.62341"
             gradientTransform="translate(-484,-674)">
            <stop
               offset="0"
               style="stop-color:#094422"
               id="stop3625" />
            <stop
               offset="1"
               style="stop-color:#9ED676"
               id="stop3627" />
          </linearGradient>
          <path
             style="fill:url(#linearGradient4198)"
             d="M 0.309,61.256 C 0.918,59.821 2.319,58.894 3.877,58.894 C 3.877,58.894 24.314,58.894 27.628,58.894 C 27.628,58.779 27.628,58.616 27.628,58.408 C 24.314,58.408 3.877,58.408 3.877,58.408 C 2.318,58.408 0.918,59.335 0.309,60.769 C 0.309,60.773 0,62.286 0,62.286 C 0,62.398 0.022,62.507 0.032,62.616 C 0.109,62.239 0.309,61.258 0.309,61.256 z"
             id="path3629" />
        </g>
        <path
           style="opacity:0.5;fill:#ffffff"
           enable-background="new    "
           d="M 152.77933,-15.331057 C 154.77534,-15.331057 167.08869,-15.331057 167.08869,-15.331057 C 168.02794,-15.331057 168.87021,-14.692971 169.23832,-13.704155 C 169.2594,-13.646273 169.27387,-13.585625 169.29193,-13.527062 C 169.48051,-14.144468 169.47147,-14.830788 169.23832,-15.457162 C 168.87021,-16.445977 168.02614,-17.084064 167.08869,-17.084064 C 167.08869,-17.084064 154.77534,-17.084064 152.77933,-17.084064 C 152.77933,-16.201364 152.77933,-15.589458 152.77933,-15.331057 z"
           id="path3631" />
        <path
           style="opacity:0.5;fill:#ffffff"
           enable-background="new    "
           d="M 103.61266,-13.703464 C 103.97957,-14.693662 104.82364,-15.331057 105.76229,-15.331057 C 105.76229,-15.331057 118.07504,-15.331057 120.07164,-15.331057 C 120.07164,-15.589458 120.07164,-16.201364 120.07164,-17.084064 C 118.07504,-17.084064 105.76229,-17.084064 105.76229,-17.084064 C 104.82304,-17.084064 103.97957,-16.445296 103.61266,-15.45647 C 103.61266,-15.454406 103.4265,-14.411826 103.4265,-14.411826 C 103.4265,-14.091416 103.48072,-13.783399 103.57471,-13.490541 C 103.597,-13.613189 103.61266,-13.702772 103.61266,-13.703464 z"
           id="path3633" />
        <path
           style="fill:#ffffff"
           d="M 167.08869,-17.084064 C 167.08869,-17.084064 155.12718,-17.084064 152.19494,-17.084064 C 151.87201,-17.084064 151.60994,-17.383123 151.60994,-17.752469 L 151.60994,-17.084064 C 151.60994,-16.887684 151.60994,-16.196534 151.60994,-15.999462 C 152.68415,-15.999462 167.08688,-15.999462 167.08688,-15.999462 C 167.6014,-15.999462 168.08217,-16.490774 168.51174,-16.214449 C 168.19122,-16.745037 167.67008,-17.084064 167.08869,-17.084064 z"
           id="path3635" />
        <path
           style="fill:#ffffff"
           d="M 120.65604,-17.084064 C 117.72381,-17.084064 105.76229,-17.084064 105.76229,-17.084064 C 105.1809,-17.084064 104.66037,-16.745728 104.33744,-16.213768 C 104.7664,-16.489392 105.24778,-15.998771 105.76229,-15.998771 C 105.76229,-15.998771 120.16563,-15.998771 121.23984,-15.998771 C 121.23984,-16.195853 121.23984,-16.886992 121.23984,-17.083372 L 121.23984,-17.751777 C 121.24044,-17.383123 120.97897,-17.084064 120.65604,-17.084064 z"
           id="path3637" />
        <path
           style="fill:url(#radialGradient4200)"
           d="M 122.40803,-56.663883 C 121.76339,-56.663883 121.24044,-56.065765 121.24044,-55.327765 C 121.24044,-55.327765 121.24044,-18.913558 121.24044,-16.415659 C 119.22035,-16.415659 105.76289,-16.415659 105.76289,-16.415659 C 105.29477,-16.415659 104.87123,-16.095238 104.68808,-15.602553 C 104.62542,-15.434417 104.5947,-15.256633 104.5947,-15.078859 C 104.5947,-14.741204 104.70796,-14.404251 104.92124,-14.151362 L 135.58414,22.25664 C 135.80464,22.51918 136.10829,22.66733 136.42519,22.66733 C 136.74209,22.66733 137.04634,22.51918 137.26624,22.25664 L 167.92975,-14.151362 C 168.25448,-14.538622 168.34485,-15.109177 168.16351,-15.601181 C 167.97915,-16.093865 167.55682,-16.414286 167.08869,-16.414286 C 167.08869,-16.414286 153.63063,-16.414286 151.61174,-16.414286 C 151.61174,-18.912186 151.61174,-55.327076 151.61174,-55.327076 C 151.61174,-56.065076 151.08819,-56.663193 150.44415,-56.663193 L 122.40803,-56.663883 L 122.40803,-56.663883 z"
           id="path3639" />
        <path
           style="fill:url(#linearGradient4202)"
           d="M 149.66237,-15.080231 L 149.66237,-55.327765 L 123.18921,-55.327765 L 123.18921,-15.080231 L 105.76229,-15.080231 L 136.42579,21.32776 L 167.08869,-15.080231 L 149.66237,-15.080231 z"
           id="path3641"
           sodipodi:nodetypes="cccccccc" />
        <path
           style="fill:url(#radialGradient4204)"
           d="M 126.33071,-52.106113 C 126.33071,-46.18585 126.33071,-13.208265 126.33071,-13.208265 C 126.33071,-11.263404 125.14137,-9.68748 123.67415,-9.68748 C 123.67415,-9.68748 119.09054,-9.68748 114.77933,-9.68748 C 120.46129,-1.871013 133.66077,16.28485 136.4264,20.08959 C 139.19202,16.28485 152.39204,-1.871013 158.07347,-9.68748 C 153.7617,-9.68748 149.17863,-9.68748 149.17863,-9.68748 C 147.71087,-9.68748 146.52153,-11.263404 146.52153,-13.208265 C 146.52153,-13.208265 146.52153,-46.18585 146.52153,-52.106113 C 142.75237,-52.106113 130.09878,-52.106113 126.33071,-52.106113 z"
           id="path3643" />
        <path
           style="fill:url(#linearGradient4206)"
           d="M 122.40803,-56.976034 C 121.80556,-56.976034 121.29949,-56.604621 120.98379,-56.073345 C 121.41155,-56.354488 121.88027,-55.89074 122.40803,-55.89074 L 150.44355,-55.89074 C 150.97131,-55.89074 151.43944,-56.354488 151.8678,-56.073345 C 151.5521,-56.604621 151.04602,-56.976034 150.44355,-56.976034 L 122.40803,-56.976034 L 122.40803,-56.976034 z"
           id="path3645" />
        <path
           style="fill:#ffffff"
           d="M 137.26745,21.62407 C 137.04754,21.86318 136.74269,21.99617 136.42579,21.99617 C 136.10889,21.99617 135.80464,21.86318 135.58414,21.62407 L 129.83112,15.424454 L 135.58414,22.25526 C 135.80464,22.51711 136.10829,22.66526 136.42519,22.66526 C 136.74209,22.66526 137.04634,22.51711 137.26624,22.25526 L 143.01806,15.425837 L 137.26745,21.62407 z"
           id="path3647" />
      </g>
      <g
         transform="matrix(0,0.4688609,0.4574253,0,102.81051,3.4995312e-2)"
         id="g3665">
        <path
           style="fill:url(#linearGradient4208)"
           d="M 122.40803,-58 C 121.11995,-58 120.07225,-56.801009 120.07225,-55.327765 C 120.07225,-55.327765 120.07225,-20.243475 120.07225,-17.752469 C 118.07565,-17.752469 105.76289,-17.752469 105.76289,-17.752469 C 104.82364,-17.752469 103.98018,-17.113701 103.61327,-16.125567 C 103.61266,-16.122801 103.4265,-15.080231 103.4265,-15.080231 C 103.4265,-14.384954 103.65845,-13.726198 104.08019,-13.22662 L 134.74308,23.18138 C 135.18048,23.70094 135.7944,24 136.42579,24 C 137.05778,24 137.6705,23.70094 138.1085,23.18138 L 168.772,-13.22662 C 169.42327,-14.000449 169.60703,-15.136741 169.23953,-16.125567 C 168.87081,-17.115074 168.02735,-17.751777 167.08929,-17.751777 C 167.08929,-17.751777 154.77654,-17.751777 152.77994,-17.751777 C 152.77994,-20.243475 152.77994,-55.327076 152.77994,-55.327076 C 152.77933,-56.801009 151.73164,-58 150.44355,-58 L 122.40803,-58 z"
           id="path3667" />
        <g
           id="g3669"
           transform="matrix(0.6024737,0,0,0.6890756,103.4265,-58)">
          <linearGradient
             id="linearGradient3671"
             gradientUnits="userSpaceOnUse"
             x1="538.77338"
             y1="674"
             x2="538.77338"
             y2="678.3681"
             gradientTransform="translate(-484,-674)">
            <stop
               offset="0"
               style="stop-color:#094422"
               id="stop3673" />
            <stop
               offset="1"
               style="stop-color:#9ED676"
               id="stop3675" />
          </linearGradient>
          <path
             style="fill:url(#linearGradient4210)"
             d="M 31.506,0.486 L 78.04,0.486 C 80.18,0.486 81.918,2.225 81.918,4.363 C 81.918,4.051 81.918,3.878 81.918,3.878 C 81.917,1.74 80.178,0 78.04,0 L 31.506,0 C 29.368,0 27.629,1.74 27.629,3.878 C 27.629,3.878 27.629,4.051 27.629,4.363 C 27.629,2.225 29.368,0.486 31.506,0.486 z"
             id="path3677" />
          <linearGradient
             id="linearGradient3679"
             gradientUnits="userSpaceOnUse"
             x1="579.72852"
             y1="732.41022"
             x2="579.72852"
             y2="736.55688"
             gradientTransform="translate(-484,-674)">
            <stop
               offset="0"
               style="stop-color:#094422"
               id="stop3681" />
            <stop
               offset="1"
               style="stop-color:#9ED676"
               id="stop3683" />
          </linearGradient>
          <path
             style="fill:url(#linearGradient4212)"
             d="M 81.917,58.894 C 85.23,58.894 105.668,58.894 105.668,58.894 C 107.227,58.894 108.625,59.82 109.236,61.255 C 109.415,61.675 109.506,62.111 109.531,62.551 C 109.572,61.954 109.48,61.344 109.236,60.77 C 108.625,59.335 107.224,58.411 105.668,58.411 C 105.668,58.411 85.23,58.411 81.917,58.411 C 81.917,58.616 81.917,58.779 81.917,58.894 z"
             id="path3685" />
          <linearGradient
             id="linearGradient3687"
             gradientUnits="userSpaceOnUse"
             x1="497.81451"
             y1="732.4082"
             x2="497.81451"
             y2="736.62341"
             gradientTransform="translate(-484,-674)">
            <stop
               offset="0"
               style="stop-color:#094422"
               id="stop3689" />
            <stop
               offset="1"
               style="stop-color:#9ED676"
               id="stop3691" />
          </linearGradient>
          <path
             style="fill:url(#linearGradient4214)"
             d="M 0.309,61.256 C 0.918,59.821 2.319,58.894 3.877,58.894 C 3.877,58.894 24.314,58.894 27.628,58.894 C 27.628,58.779 27.628,58.616 27.628,58.408 C 24.314,58.408 3.877,58.408 3.877,58.408 C 2.318,58.408 0.918,59.335 0.309,60.769 C 0.309,60.773 0,62.286 0,62.286 C 0,62.398 0.022,62.507 0.032,62.616 C 0.109,62.239 0.309,61.258 0.309,61.256 z"
             id="path3693" />
        </g>
        <path
           style="opacity:0.5;fill:#ffffff"
           enable-background="new    "
           d="M 152.77933,-15.331057 C 154.77534,-15.331057 167.08869,-15.331057 167.08869,-15.331057 C 168.02794,-15.331057 168.87021,-14.692971 169.23832,-13.704155 C 169.2594,-13.646273 169.27387,-13.585625 169.29193,-13.527062 C 169.48051,-14.144468 169.47147,-14.830788 169.23832,-15.457162 C 168.87021,-16.445977 168.02614,-17.084064 167.08869,-17.084064 C 167.08869,-17.084064 154.77534,-17.084064 152.77933,-17.084064 C 152.77933,-16.201364 152.77933,-15.589458 152.77933,-15.331057 z"
           id="path3695" />
        <path
           style="opacity:0.5;fill:#ffffff"
           enable-background="new    "
           d="M 103.61266,-13.703464 C 103.97957,-14.693662 104.82364,-15.331057 105.76229,-15.331057 C 105.76229,-15.331057 118.07504,-15.331057 120.07164,-15.331057 C 120.07164,-15.589458 120.07164,-16.201364 120.07164,-17.084064 C 118.07504,-17.084064 105.76229,-17.084064 105.76229,-17.084064 C 104.82304,-17.084064 103.97957,-16.445296 103.61266,-15.45647 C 103.61266,-15.454406 103.4265,-14.411826 103.4265,-14.411826 C 103.4265,-14.091416 103.48072,-13.783399 103.57471,-13.490541 C 103.597,-13.613189 103.61266,-13.702772 103.61266,-13.703464 z"
           id="path3697" />
        <path
           style="fill:#ffffff"
           d="M 167.08869,-17.084064 C 167.08869,-17.084064 155.12718,-17.084064 152.19494,-17.084064 C 151.87201,-17.084064 151.60994,-17.383123 151.60994,-17.752469 L 151.60994,-17.084064 C 151.60994,-16.887684 151.60994,-16.196534 151.60994,-15.999462 C 152.68415,-15.999462 167.08688,-15.999462 167.08688,-15.999462 C 167.6014,-15.999462 168.08217,-16.490774 168.51174,-16.214449 C 168.19122,-16.745037 167.67008,-17.084064 167.08869,-17.084064 z"
           id="path3699" />
        <path
           style="fill:#ffffff"
           d="M 120.65604,-17.084064 C 117.72381,-17.084064 105.76229,-17.084064 105.76229,-17.084064 C 105.1809,-17.084064 104.66037,-16.745728 104.33744,-16.213768 C 104.7664,-16.489392 105.24778,-15.998771 105.76229,-15.998771 C 105.76229,-15.998771 120.16563,-15.998771 121.23984,-15.998771 C 121.23984,-16.195853 121.23984,-16.886992 121.23984,-17.083372 L 121.23984,-17.751777 C 121.24044,-17.383123 120.97897,-17.084064 120.65604,-17.084064 z"
           id="path3701" />
        <path
           style="fill:url(#radialGradient4216)"
           d="M 122.40803,-56.663883 C 121.76339,-56.663883 121.24044,-56.065765 121.24044,-55.327765 C 121.24044,-55.327765 121.24044,-18.913558 121.24044,-16.415659 C 119.22035,-16.415659 105.76289,-16.415659 105.76289,-16.415659 C 105.29477,-16.415659 104.87123,-16.095238 104.68808,-15.602553 C 104.62542,-15.434417 104.5947,-15.256633 104.5947,-15.078859 C 104.5947,-14.741204 104.70796,-14.404251 104.92124,-14.151362 L 135.58414,22.25664 C 135.80464,22.51918 136.10829,22.66733 136.42519,22.66733 C 136.74209,22.66733 137.04634,22.51918 137.26624,22.25664 L 167.92975,-14.151362 C 168.25448,-14.538622 168.34485,-15.109177 168.16351,-15.601181 C 167.97915,-16.093865 167.55682,-16.414286 167.08869,-16.414286 C 167.08869,-16.414286 153.63063,-16.414286 151.61174,-16.414286 C 151.61174,-18.912186 151.61174,-55.327076 151.61174,-55.327076 C 151.61174,-56.065076 151.08819,-56.663193 150.44415,-56.663193 L 122.40803,-56.663883 L 122.40803,-56.663883 z"
           id="path3703" />
        <path
           style="fill:url(#linearGradient4218)"
           d="M 149.66237,-15.080231 L 149.66237,-55.327765 L 123.18921,-55.327765 L 123.18921,-15.080231 L 105.76229,-15.080231 L 136.42579,21.32776 L 167.08869,-15.080231 L 149.66237,-15.080231 z"
           id="path3705"
           sodipodi:nodetypes="cccccccc" />
        <path
           style="fill:url(#radialGradient4220)"
           d="M 126.33071,-52.106113 C 126.33071,-46.18585 126.33071,-13.208265 126.33071,-13.208265 C 126.33071,-11.263404 125.14137,-9.68748 123.67415,-9.68748 C 123.67415,-9.68748 119.09054,-9.68748 114.77933,-9.68748 C 120.46129,-1.871013 133.66077,16.28485 136.4264,20.08959 C 139.19202,16.28485 152.39204,-1.871013 158.07347,-9.68748 C 153.7617,-9.68748 149.17863,-9.68748 149.17863,-9.68748 C 147.71087,-9.68748 146.52153,-11.263404 146.52153,-13.208265 C 146.52153,-13.208265 146.52153,-46.18585 146.52153,-52.106113 C 142.75237,-52.106113 130.09878,-52.106113 126.33071,-52.106113 z"
           id="path3707" />
        <path
           style="fill:url(#linearGradient4222)"
           d="M 122.40803,-56.976034 C 121.80556,-56.976034 121.29949,-56.604621 120.98379,-56.073345 C 121.41155,-56.354488 121.88027,-55.89074 122.40803,-55.89074 L 150.44355,-55.89074 C 150.97131,-55.89074 151.43944,-56.354488 151.8678,-56.073345 C 151.5521,-56.604621 151.04602,-56.976034 150.44355,-56.976034 L 122.40803,-56.976034 L 122.40803,-56.976034 z"
           id="path3709" />
        <path
           style="fill:#ffffff"
           d="M 137.26745,21.62407 C 137.04754,21.86318 136.74269,21.99617 136.42579,21.99617 C 136.10889,21.99617 135.80464,21.86318 135.58414,21.62407 L 129.83112,15.424454 L 135.58414,22.25526 C 135.80464,22.51711 136.10829,22.66526 136.42519,22.66526 C 136.74209,22.66526 137.04634,22.51711 137.26624,22.25526 L 143.01806,15.425837 L 137.26745,21.62407 z"
           id="path3711" />
      </g>
      <g
         transform="matrix(0,0.4688609,-0.4574253,0,25.189487,3.4995312e-2)"
         id="g3729">
        <path
           style="fill:url(#linearGradient4224)"
           d="M 122.40803,-58 C 121.11995,-58 120.07225,-56.801009 120.07225,-55.327765 C 120.07225,-55.327765 120.07225,-20.243475 120.07225,-17.752469 C 118.07565,-17.752469 105.76289,-17.752469 105.76289,-17.752469 C 104.82364,-17.752469 103.98018,-17.113701 103.61327,-16.125567 C 103.61266,-16.122801 103.4265,-15.080231 103.4265,-15.080231 C 103.4265,-14.384954 103.65845,-13.726198 104.08019,-13.22662 L 134.74308,23.18138 C 135.18048,23.70094 135.7944,24 136.42579,24 C 137.05778,24 137.6705,23.70094 138.1085,23.18138 L 168.772,-13.22662 C 169.42327,-14.000449 169.60703,-15.136741 169.23953,-16.125567 C 168.87081,-17.115074 168.02735,-17.751777 167.08929,-17.751777 C 167.08929,-17.751777 154.77654,-17.751777 152.77994,-17.751777 C 152.77994,-20.243475 152.77994,-55.327076 152.77994,-55.327076 C 152.77933,-56.801009 151.73164,-58 150.44355,-58 L 122.40803,-58 z"
           id="path3731" />
        <g
           id="g3733"
           transform="matrix(0.6024737,0,0,0.6890756,103.4265,-58)">
          <linearGradient
             id="linearGradient3735"
             gradientUnits="userSpaceOnUse"
             x1="538.77338"
             y1="674"
             x2="538.77338"
             y2="678.3681"
             gradientTransform="translate(-484,-674)">
            <stop
               offset="0"
               style="stop-color:#094422"
               id="stop3737" />
            <stop
               offset="1"
               style="stop-color:#9ED676"
               id="stop3739" />
          </linearGradient>
          <path
             style="fill:url(#linearGradient4226)"
             d="M 31.506,0.486 L 78.04,0.486 C 80.18,0.486 81.918,2.225 81.918,4.363 C 81.918,4.051 81.918,3.878 81.918,3.878 C 81.917,1.74 80.178,0 78.04,0 L 31.506,0 C 29.368,0 27.629,1.74 27.629,3.878 C 27.629,3.878 27.629,4.051 27.629,4.363 C 27.629,2.225 29.368,0.486 31.506,0.486 z"
             id="path3741" />
          <linearGradient
             id="linearGradient3743"
             gradientUnits="userSpaceOnUse"
             x1="579.72852"
             y1="732.41022"
             x2="579.72852"
             y2="736.55688"
             gradientTransform="translate(-484,-674)">
            <stop
               offset="0"
               style="stop-color:#094422"
               id="stop3745" />
            <stop
               offset="1"
               style="stop-color:#9ED676"
               id="stop3747" />
          </linearGradient>
          <path
             style="fill:url(#linearGradient4228)"
             d="M 81.917,58.894 C 85.23,58.894 105.668,58.894 105.668,58.894 C 107.227,58.894 108.625,59.82 109.236,61.255 C 109.415,61.675 109.506,62.111 109.531,62.551 C 109.572,61.954 109.48,61.344 109.236,60.77 C 108.625,59.335 107.224,58.411 105.668,58.411 C 105.668,58.411 85.23,58.411 81.917,58.411 C 81.917,58.616 81.917,58.779 81.917,58.894 z"
             id="path3749" />
          <linearGradient
             id="linearGradient3751"
             gradientUnits="userSpaceOnUse"
             x1="497.81451"
             y1="732.4082"
             x2="497.81451"
             y2="736.62341"
             gradientTransform="translate(-484,-674)">
            <stop
               offset="0"
               style="stop-color:#094422"
               id="stop3753" />
            <stop
               offset="1"
               style="stop-color:#9ED676"
               id="stop3755" />
          </linearGradient>
          <path
             style="fill:url(#linearGradient4230)"
             d="M 0.309,61.256 C 0.918,59.821 2.319,58.894 3.877,58.894 C 3.877,58.894 24.314,58.894 27.628,58.894 C 27.628,58.779 27.628,58.616 27.628,58.408 C 24.314,58.408 3.877,58.408 3.877,58.408 C 2.318,58.408 0.918,59.335 0.309,60.769 C 0.309,60.773 0,62.286 0,62.286 C 0,62.398 0.022,62.507 0.032,62.616 C 0.109,62.239 0.309,61.258 0.309,61.256 z"
             id="path3757" />
        </g>
        <path
           style="opacity:0.5;fill:#ffffff"
           enable-background="new    "
           d="M 152.77933,-15.331057 C 154.77534,-15.331057 167.08869,-15.331057 167.08869,-15.331057 C 168.02794,-15.331057 168.87021,-14.692971 169.23832,-13.704155 C 169.2594,-13.646273 169.27387,-13.585625 169.29193,-13.527062 C 169.48051,-14.144468 169.47147,-14.830788 169.23832,-15.457162 C 168.87021,-16.445977 168.02614,-17.084064 167.08869,-17.084064 C 167.08869,-17.084064 154.77534,-17.084064 152.77933,-17.084064 C 152.77933,-16.201364 152.77933,-15.589458 152.77933,-15.331057 z"
           id="path3759" />
        <path
           style="opacity:0.5;fill:#ffffff"
           enable-background="new    "
           d="M 103.61266,-13.703464 C 103.97957,-14.693662 104.82364,-15.331057 105.76229,-15.331057 C 105.76229,-15.331057 118.07504,-15.331057 120.07164,-15.331057 C 120.07164,-15.589458 120.07164,-16.201364 120.07164,-17.084064 C 118.07504,-17.084064 105.76229,-17.084064 105.76229,-17.084064 C 104.82304,-17.084064 103.97957,-16.445296 103.61266,-15.45647 C 103.61266,-15.454406 103.4265,-14.411826 103.4265,-14.411826 C 103.4265,-14.091416 103.48072,-13.783399 103.57471,-13.490541 C 103.597,-13.613189 103.61266,-13.702772 103.61266,-13.703464 z"
           id="path3761" />
        <path
           style="fill:#ffffff"
           d="M 167.08869,-17.084064 C 167.08869,-17.084064 155.12718,-17.084064 152.19494,-17.084064 C 151.87201,-17.084064 151.60994,-17.383123 151.60994,-17.752469 L 151.60994,-17.084064 C 151.60994,-16.887684 151.60994,-16.196534 151.60994,-15.999462 C 152.68415,-15.999462 167.08688,-15.999462 167.08688,-15.999462 C 167.6014,-15.999462 168.08217,-16.490774 168.51174,-16.214449 C 168.19122,-16.745037 167.67008,-17.084064 167.08869,-17.084064 z"
           id="path3763" />
        <path
           style="fill:#ffffff"
           d="M 120.65604,-17.084064 C 117.72381,-17.084064 105.76229,-17.084064 105.76229,-17.084064 C 105.1809,-17.084064 104.66037,-16.745728 104.33744,-16.213768 C 104.7664,-16.489392 105.24778,-15.998771 105.76229,-15.998771 C 105.76229,-15.998771 120.16563,-15.998771 121.23984,-15.998771 C 121.23984,-16.195853 121.23984,-16.886992 121.23984,-17.083372 L 121.23984,-17.751777 C 121.24044,-17.383123 120.97897,-17.084064 120.65604,-17.084064 z"
           id="path3765" />
        <path
           style="fill:url(#radialGradient4232)"
           d="M 122.40803,-56.663883 C 121.76339,-56.663883 121.24044,-56.065765 121.24044,-55.327765 C 121.24044,-55.327765 121.24044,-18.913558 121.24044,-16.415659 C 119.22035,-16.415659 105.76289,-16.415659 105.76289,-16.415659 C 105.29477,-16.415659 104.87123,-16.095238 104.68808,-15.602553 C 104.62542,-15.434417 104.5947,-15.256633 104.5947,-15.078859 C 104.5947,-14.741204 104.70796,-14.404251 104.92124,-14.151362 L 135.58414,22.25664 C 135.80464,22.51918 136.10829,22.66733 136.42519,22.66733 C 136.74209,22.66733 137.04634,22.51918 137.26624,22.25664 L 167.92975,-14.151362 C 168.25448,-14.538622 168.34485,-15.109177 168.16351,-15.601181 C 167.97915,-16.093865 167.55682,-16.414286 167.08869,-16.414286 C 167.08869,-16.414286 153.63063,-16.414286 151.61174,-16.414286 C 151.61174,-18.912186 151.61174,-55.327076 151.61174,-55.327076 C 151.61174,-56.065076 151.08819,-56.663193 150.44415,-56.663193 L 122.40803,-56.663883 L 122.40803,-56.663883 z"
           id="path3767" />
        <path
           style="fill:url(#linearGradient4234)"
           d="M 149.66237,-15.080231 L 149.66237,-55.327765 L 123.18921,-55.327765 L 123.18921,-15.080231 L 105.76229,-15.080231 L 136.42579,21.32776 L 167.08869,-15.080231 L 149.66237,-15.080231 z"
           id="path3769"
           sodipodi:nodetypes="cccccccc" />
        <path
           style="fill:url(#radialGradient4236)"
           d="M 126.33071,-52.106113 C 126.33071,-46.18585 126.33071,-13.208265 126.33071,-13.208265 C 126.33071,-11.263404 125.14137,-9.68748 123.67415,-9.68748 C 123.67415,-9.68748 119.09054,-9.68748 114.77933,-9.68748 C 120.46129,-1.871013 133.66077,16.28485 136.4264,20.08959 C 139.19202,16.28485 152.39204,-1.871013 158.07347,-9.68748 C 153.7617,-9.68748 149.17863,-9.68748 149.17863,-9.68748 C 147.71087,-9.68748 146.52153,-11.263404 146.52153,-13.208265 C 146.52153,-13.208265 146.52153,-46.18585 146.52153,-52.106113 C 142.75237,-52.106113 130.09878,-52.106113 126.33071,-52.106113 z"
           id="path3771" />
        <path
           style="fill:url(#linearGradient4238)"
           d="M 122.40803,-56.976034 C 121.80556,-56.976034 121.29949,-56.604621 120.98379,-56.073345 C 121.41155,-56.354488 121.88027,-55.89074 122.40803,-55.89074 L 150.44355,-55.89074 C 150.97131,-55.89074 151.43944,-56.354488 151.8678,-56.073345 C 151.5521,-56.604621 151.04602,-56.976034 150.44355,-56.976034 L 122.40803,-56.976034 L 122.40803,-56.976034 z"
           id="path3773" />
        <path
           style="fill:#ffffff"
           d="M 137.26745,21.62407 C 137.04754,21.86318 136.74269,21.99617 136.42579,21.99617 C 136.10889,21.99617 135.80464,21.86318 135.58414,21.62407 L 129.83112,15.424454 L 135.58414,22.25526 C 135.80464,22.51711 136.10829,22.66526 136.42519,22.66526 C 136.74209,22.66526 137.04634,22.51711 137.26624,22.25526 L 143.01806,15.425837 L 137.26745,21.62407 z"
           id="path3775" />
      </g>
    </g>
  </g>
</svg>
